<svg width="16" height="16" viewBox="0 0 16 16" fill="none" xmlns="http://www.w3.org/2000/svg">
<path d="M4.21388 4.21385C3.92873 4.49899 3.92873 4.96131 4.21388 5.24645L6.96738 7.99998L4.21382 10.7536C3.92873 11.0387 3.92873 11.501 4.21382 11.7861C4.49898 12.0713 4.96132 12.0713 5.24641 11.7861L8.00003 9.03256L10.7536 11.7861C11.0387 12.0713 11.501 12.0713 11.7862 11.7861C12.0713 11.501 12.0713 11.0387 11.7862 10.7536L9.03262 7.99998L11.7861 5.24645C12.0713 4.96131 12.0713 4.49899 11.7861 4.21385C11.501 3.92872 11.0387 3.92872 10.7535 4.21385L8.00003 6.96739L5.24647 4.21385C4.96132 3.92872 4.49903 3.92872 4.21388 4.21385Z" fill="black"/>
</svg>
